<svg xmlns="http://www.w3.org/2000/svg" width="447.72" height="460.861" viewBox="0 0 447.72 460.861">
  <g id="noun-bank-5158869" transform="translate(-126.17 -43.137)">
    <path id="Path_794" data-name="Path 794" d="M126.17,481.6H573.89V504H126.17Z" fill="#5c8086" fill-rule="evenodd"/>
    <path id="Path_795" data-name="Path 795" d="M144.82,436.86H555.19v22.4H144.82Z" fill="#5c8086" fill-rule="evenodd"/>
    <path id="Path_796" data-name="Path 796" d="M521.64,247.52v-22.4H432.1v22.4h14.895V392.06H432.1v22.4H521.64v-22.4H506.687V247.52Z" fill="#5c8086" fill-rule="evenodd"/>
    <path id="Path_797" data-name="Path 797" d="M566.195,213.724H133.82V174.185L350,43.137,566.177,174.183Zm-410.375-22H544.185l0-5.147L350,68.863,155.82,186.575Z" fill="#5c8086"/>
    <path id="Path_798" data-name="Path 798" d="M394.74,247.52v-22.4H305.2v22.4H320.15V392.06H305.2v22.4H394.74v-22.4H379.845V247.52Z" fill="#5c8086" fill-rule="evenodd"/>
    <path id="Path_799" data-name="Path 799" d="M267.9,247.52v-22.4H178.357v22.4H193.31V392.06H178.357v22.4H267.9v-22.4H253V247.52Z" fill="#5c8086" fill-rule="evenodd"/>
  </g>
</svg>
