<svg xmlns="http://www.w3.org/2000/svg" width="82" height="82" viewBox="0 0 82 82">
  <g id="No._of_bids" data-name="No. of bids" transform="translate(1)">
    <g id="Group_52" data-name="Group 52" transform="translate(4.769 3.971)">
      <g id="auction-1307674" transform="translate(0 0)">
        <path id="Path_291" data-name="Path 291" d="M296.757,213.863a.579.579,0,0,1-.544-.489,11.482,11.482,0,0,0-9.137-9.137.523.523,0,0,1,.163-1.033,12.585,12.585,0,0,1,10.007,10.007.51.51,0,0,1-.435.6A.054.054,0,0,0,296.757,213.863Z" transform="translate(-258.45 -170.921)" fill="#fff" stroke="#fff" stroke-width="0.4"/>
        <path id="Path_292" data-name="Path 292" d="M384.624,126.449h-.054a12.585,12.585,0,0,1-10.007-10.007.51.51,0,0,1,.435-.6.484.484,0,0,1,.6.435,11.482,11.482,0,0,0,9.137,9.083.54.54,0,0,1,.435.6A.579.579,0,0,1,384.624,126.449Z" transform="translate(-338.162 -92.653)" fill="#fff" stroke="#fff" stroke-width="0.4"/>
        <path id="Path_293" data-name="Path 293" d="M245.071,84.257a1.649,1.649,0,0,1-1.176-.491l-2.455-2.62a1.828,1.828,0,0,1,0-2.51l7.467-7.968a1.566,1.566,0,0,1,2.354,0l2.455,2.62a1.829,1.829,0,0,1,0,2.51l-7.469,7.912A1.51,1.51,0,0,1,245.071,84.257Zm5.012-13.1a.607.607,0,0,0-.461.217l-7.467,7.968a.724.724,0,0,0,0,.983l2.455,2.618a.619.619,0,0,0,.92,0L253,74.98A.724.724,0,0,0,253,74l-2.455-2.62a.894.894,0,0,0-.452-.216Z" transform="translate(-217.047 -51.009)" fill="#fff" stroke="#fff" stroke-width="0.4"/>
        <path id="Path_294" data-name="Path 294" d="M388.377,227.034a1.566,1.566,0,0,1-1.16-.475l-2.422-2.533a1.74,1.74,0,0,1,0-2.436l7.366-7.759a1.655,1.655,0,0,1,2.321,0l2.422,2.533a1.74,1.74,0,0,1,0,2.436l-7.366,7.707A1.432,1.432,0,0,1,388.377,227.034Zm-2.876-3.8,2.422,2.533a.619.619,0,0,0,.908,0l7.366-7.705a.7.7,0,0,0,0-.95l-2.422-2.533a.619.619,0,0,0-.908,0l-7.366,7.705A.7.7,0,0,0,385.5,223.234Z" transform="translate(-346.325 -180.546)" fill="#fff" stroke="#fff" stroke-width="0.4"/>
        <path id="Path_295" data-name="Path 295" d="M129.424,249.72a1.974,1.974,0,0,1-1.522-.652l-1.251-1.251a2.178,2.178,0,0,1-.651-1.576,2.232,2.232,0,0,1,.706-1.576l19.742-18.817a.522.522,0,0,1,.762,0l2.61,2.61a.522.522,0,0,1,0,.762l-18.766,19.8a2.024,2.024,0,0,1-1.522.706h-.108Zm17.4-22.733-19.415,18.491a1.143,1.143,0,0,0-.381.762,1.106,1.106,0,0,0,.327.816l1.251,1.251a1.106,1.106,0,0,0,.816.327.951.951,0,0,0,.762-.381l18.491-19.415Z" transform="translate(-112.814 -190.424)" fill="#fff" stroke="#fff" stroke-width="0.4"/>
        <path id="Path_296" data-name="Path 296" d="M352.012,480.444H329.276a.544.544,0,1,1,0-1.087h22.736a.544.544,0,1,1,0,1.087Z" transform="translate(-302.344 -419.455)" fill="#fff" stroke="#fff" stroke-width="0.4"/>
        <path id="Path_297" data-name="Path 297" d="M383.582,440.364a.522.522,0,0,1-.545-.545.837.837,0,0,0-.816-.816h-12.4a.837.837,0,0,0-.816.816.545.545,0,1,1-1.087,0,1.928,1.928,0,0,1,1.9-1.9h12.4a1.928,1.928,0,0,1,1.9,1.9.585.585,0,0,1-.544.545Z" transform="translate(-337.725 -382.039)" fill="#fff" stroke="#fff" stroke-width="0.4"/>
        <path id="Path_290" data-name="Path 290" d="M26.153,52.124a26.047,26.047,0,0,0,26.035-23.6,1.237,1.237,0,1,0-2.462-.247A23.691,23.691,0,1,1,23.2,2.4,1.218,1.218,0,0,0,22.895,0a26.165,26.165,0,0,0,3.262,52.125Z" transform="matrix(-0.857, 0.515, -0.515, -0.857, 71.586, 44.68)" fill="#fff"/>
      </g>
    </g>
    <g id="Rectangle_508" data-name="Rectangle 508" transform="translate(-1 0)" fill="none" stroke="#707070" stroke-width="1" opacity="0">
      <rect width="82" height="82" stroke="none"/>
      <rect x="0.5" y="0.5" width="81" height="81" fill="none"/>
    </g>
  </g>
</svg>
