<svg xmlns="http://www.w3.org/2000/svg" width="82" height="82" viewBox="0 0 82 82">
  <g id="bids" transform="translate(1)">
    <g id="Group_135" data-name="Group 135" transform="translate(15.697 5.838)">
      <path id="Path_289" data-name="Path 289" d="M368.05,49.235a1.158,1.158,0,0,0-.293,2.3,22.652,22.652,0,0,1,19.589,19.113,1.152,1.152,0,0,0,1.177,1h.177a1.237,1.237,0,0,0,1-1.352,25.086,25.086,0,0,0-21.646-21.058Z" transform="translate(-339.635 -49.226)" fill="#fff"/>
      <path id="Path_290" data-name="Path 290" d="M137.17,99.684a24.99,24.99,0,0,0,24.974-22.641,1.187,1.187,0,1,0-2.361-.237,22.73,22.73,0,1,1-25.452-24.828,1.161,1.161,0,0,0-.3-2.3,25.1,25.1,0,0,0,3.13,50.019Z" transform="translate(-111.906 -49.606)" fill="#fff"/>
      <path id="Path_330" data-name="Path 330" d="M10.385-1.365a3.164,3.164,0,0,0,1.7-2.9c0-2.093-1.7-3.431-4.864-3.431H1.032V5.5H7.6c3.394,0,5.165-1.32,5.165-3.581A3.25,3.25,0,0,0,10.385-1.365ZM6.955-5.784c1.7,0,2.651.6,2.651,1.829s-.961,1.81-2.651,1.81H3.487V-5.777Zm.49,9.35H3.487v-3.8H7.444c1.847,0,2.847.585,2.847,1.9s-1,1.9-2.847,1.9ZM15.382,5.5h2.451V-7.7H15.382Zm6.009,0H27.16c4.279,0,7.2-2.639,7.2-6.6s-2.918-6.6-7.2-6.6H21.395Zm2.451-2.073V-5.627h3.2A4.406,4.406,0,0,1,30.5-4.463a4.406,4.406,0,0,1,1.4,3.361,4.406,4.406,0,0,1-1.4,3.361,4.406,4.406,0,0,1-3.448,1.164Z" transform="translate(7.601 25.605)" fill="#fff"/>
      <path id="Path_1947" data-name="Path 1947" d="M1.7.181H8.378c.923,0,1.638.445,1.638,1.366V21.578a1.668,1.668,0,0,1-1.668,1.668H1.668A1.668,1.668,0,0,1,0,21.578V1.547C0,.626.779.181,1.7.181Z" transform="translate(20.198 47.649)" fill="none"/>
      <path id="Path_1948" data-name="Path 1948" d="M1.767,1.949V21.48h6.48V1.949H1.767M1.7.181H8.377c.922,0,1.638.445,1.638,1.367v20.03a1.669,1.669,0,0,1-1.669,1.669H1.669A1.669,1.669,0,0,1,0,21.578V1.548C0,.626.779.181,1.7.181Z" transform="translate(10.044 42.743) rotate(31)" fill="#fff"/>
    </g>
    <g id="Rectangle_509" data-name="Rectangle 509" transform="translate(-1)" fill="none" stroke="#707070" stroke-width="1" opacity="0">
      <rect width="82" height="82" stroke="none"/>
      <rect x="0.5" y="0.5" width="81" height="81" fill="none"/>
    </g>
  </g>
</svg>
