<svg xmlns="http://www.w3.org/2000/svg" width="30.002" height="30.001" viewBox="0 0 30.002 30.001">
  <g id="deposit" transform="translate(-153.497 -1551)">
    <path id="Path_289" data-name="Path 289" d="M367.526,49.231a.693.693,0,0,0-.176,1.374,13.57,13.57,0,0,1,11.735,11.453.691.691,0,0,0,.7.6h.106a.74.74,0,0,0,.6-.81,15.029,15.029,0,0,0-12.968-12.616Z" transform="translate(-197.106 1501.772)" fill="#5c8086"/>
    <path id="Path_290" data-name="Path 290" d="M127.035,79.638A14.972,14.972,0,0,0,142,66.074a.711.711,0,1,0-1.415-.142,13.618,13.618,0,1,1-15.246-14.874.7.7,0,0,0-.177-1.381,15.04,15.04,0,0,0,1.875,29.962Z" transform="translate(41.495 1501.362)" fill="#5c8086"/>
    <path id="Path_328" data-name="Path 328" d="M303.436,236.575a2.229,2.229,0,0,1-2.224-2.224.662.662,0,1,0-1.324,0,3.551,3.551,0,0,0,2.886,3.482v.43a.662.662,0,1,0,1.324,0v-.43a3.551,3.551,0,0,0,2.886-3.482c0-2.2-1.913-3.065-3.349-3.521-2.178-.688-2.429-1.615-2.429-2.257a2.224,2.224,0,0,1,4.448,0,.662.662,0,1,0,1.324,0,3.551,3.551,0,0,0-2.886-3.482v-.43a.662.662,0,1,0-1.324,0v.43a3.551,3.551,0,0,0-2.886,3.482c0,1.628,1.125,2.813,3.349,3.521,1.721.549,2.429,1.2,2.429,2.257a2.229,2.229,0,0,1-2.224,2.224Z" transform="translate(-134.936 1334.538)" fill="#5c8086"/>
  </g>
</svg>
