<svg xmlns="http://www.w3.org/2000/svg" width="490" height="568" viewBox="0 0 490 568">
  <g id="noun-money-1510429" transform="translate(-105 8)">
    <path id="Path_785" data-name="Path 785" d="M455,472.5a8.75,8.75,0,0,0,0,17.5h70a8.75,8.75,0,0,0,0-17.5h-8.75v-105H525a8.75,8.75,0,0,0,0-17.5H455a8.75,8.75,0,0,0,0,17.5h8.75v105Z" fill="#5c8086"/>
    <path id="Path_786" data-name="Path 786" d="M148.75,507.5a8.75,8.75,0,0,0,0,17.5h402.5a8.75,8.75,0,0,0,0-17.5Z" fill="#5c8086"/>
    <path id="Path_787" data-name="Path 787" d="M105,551.25a8.776,8.776,0,0,0,8.75,8.75h472.5a8.75,8.75,0,0,0,0-17.5H113.75A8.776,8.776,0,0,0,105,551.25Z" fill="#5c8086"/>
    <path id="Path_788" data-name="Path 788" d="M175,472.5a8.75,8.75,0,0,0,0,17.5h70a8.75,8.75,0,0,0,0-17.5h-8.75v-105H245a8.75,8.75,0,0,0,0-17.5H175a8.75,8.75,0,0,0,0,17.5h8.75v105Z" fill="#5c8086"/>
    <path id="Path_789" data-name="Path 789" d="M315,472.5a8.75,8.75,0,0,0,0,17.5h70a8.75,8.75,0,0,0,0-17.5h-8.75v-105H385a8.75,8.75,0,0,0,0-17.5H315a8.75,8.75,0,0,0,0,17.5h8.75v105Z" fill="#5c8086"/>
    <path id="Path_790" data-name="Path 790" d="M455.44,257.25l64.75,58.188H181.13l63.438-58.188A103.517,103.517,0,0,1,232.756,245l-81.375,74.375c-7.875,7-10.5,13.125-1.312,13.125h397.69c9.188,0,10.062-5.687,2.188-12.688L467.258,245a103.6,103.6,0,0,1-11.812,12.25Z" fill="#5c8086"/>
    <path id="Path_793" data-name="Path 793" d="M210,140c0,52.938,29.312,98.438,72.188,122.5H262.5a8.75,8.75,0,0,0,0,17.5h175a8.75,8.75,0,0,0,0-17.5H417.812C460.687,238.438,490,192.938,490,140a140,140,0,0,0-280,0Z" fill="none" stroke="#5c8086" stroke-width="16"/>
    <path id="Path_328" data-name="Path 328" d="M335.7,350.741a22.464,22.464,0,0,1-22.414-22.414,6.672,6.672,0,1,0-13.343,0,35.788,35.788,0,0,0,29.085,35.092v4.333a6.672,6.672,0,1,0,13.343,0V363.42a35.788,35.788,0,0,0,29.086-35.092c0-22.172-19.28-30.889-33.752-35.485-21.95-6.934-24.48-16.276-24.48-22.746a22.414,22.414,0,0,1,44.827,0,6.672,6.672,0,1,0,13.343,0A35.787,35.787,0,0,0,342.311,235v-4.334a6.672,6.672,0,1,0-13.343,0V235A35.788,35.788,0,0,0,299.882,270.1c0,16.407,11.338,28.35,33.751,35.485,17.344,5.533,24.48,12.094,24.48,22.746A22.464,22.464,0,0,1,335.7,350.741Z" transform="translate(14.331 -159.212)" fill="#5c8086"/>
  </g>
</svg>
